<svg width="329" height="216" viewBox="0 0 329 216" fill="none" xmlns="http://www.w3.org/2000/svg">
<g filter="url(#filter0_d_107_148)">
<g clip-path="url(#clip0_107_148)">
<rect x="24.5" y="20" width="280" height="168" rx="16" fill="#111827"/>
<ellipse cx="239.001" cy="90.5011" rx="67.0078" ry="104.486" transform="rotate(-45 239.001 90.5011)" fill="#A855F7"/>
<path opacity="0.5" d="M71.8136 39.5681C48.962 28.6708 26.202 24.2368 6.62438 26.8681C-12.9532 29.4995 -28.3996 39.0686 -37.6173 54.2762C-46.8349 69.4837 -49.377 89.5926 -44.8985 111.872C-40.4199 134.152 -29.1377 157.522 -12.5839 178.81C3.96985 200.097 24.993 218.27 47.6305 230.861C70.2679 243.452 93.4228 249.85 113.951 249.187C134.478 248.524 151.384 240.832 162.373 227.155C173.361 213.478 177.899 194.479 175.37 172.739L64.5 137.682L71.8136 39.5681Z" fill="#A855F7"/>
<ellipse cx="193.46" cy="31.9602" rx="38.7249" ry="60.3263" transform="rotate(-45 193.46 31.9602)" fill="#2DD4BF" fill-opacity="0.8"/>
<ellipse cx="24.5" cy="164" rx="38.7249" ry="60.3263" transform="rotate(-45 24.5 164)" fill="#2DD4BF" fill-opacity="0.64"/>
<ellipse cx="268.86" cy="136.723" rx="64.7259" ry="62.4069" transform="rotate(-45 268.86 136.723)" fill="#2DD4BF"/>
<g filter="url(#filter1_b_107_148)">
<rect x="24.5" y="20" width="280" height="168" fill="#111827" fill-opacity="0.4"/>
</g>
<path d="M50.5104 117.952H53.1824V115.648C53.1824 115.349 53.1931 114.997 53.2144 114.592C53.2358 114.187 53.2518 113.835 53.2624 113.536H53.1984C53.0704 113.803 52.9371 114.064 52.7984 114.32C52.6598 114.576 52.5158 114.843 52.3664 115.12L50.5104 117.952ZM53.1824 122V119.376H48.6864V118.128L52.7184 111.824H54.9104V117.952H56.1904V119.376H54.9104V122H53.1824Z" fill="#F9FAFB"/>
<path d="M63.0864 122C63.1504 120.795 63.2784 119.717 63.4704 118.768C63.6624 117.808 63.9558 116.896 64.3504 116.032C64.7451 115.168 65.2678 114.283 65.9184 113.376H61.1024V111.824H67.9344V112.944C67.3371 113.68 66.8518 114.384 66.4784 115.056C66.1158 115.728 65.8278 116.411 65.6144 117.104C65.4118 117.787 65.2624 118.528 65.1664 119.328C65.0704 120.117 65.0011 121.008 64.9584 122H63.0864Z" fill="#F9FAFB"/>
<path d="M73.5824 122V120.496H75.8544V113.808H73.9824V112.656C74.4838 112.56 74.9211 112.448 75.2944 112.32C75.6678 112.181 76.0144 112.016 76.3344 111.824H77.7104V120.496H79.7104V122H73.5824Z" fill="#F9FAFB"/>
<path d="M88.6864 117.04C88.3984 117.04 88.0944 117.131 87.7744 117.312C87.4544 117.483 87.1504 117.781 86.8624 118.208C86.9584 119.115 87.1771 119.771 87.5184 120.176C87.8598 120.581 88.2758 120.784 88.7664 120.784C89.1931 120.784 89.5504 120.619 89.8384 120.288C90.1371 119.947 90.2864 119.467 90.2864 118.848C90.2864 118.251 90.1424 117.803 89.8544 117.504C89.5771 117.195 89.1878 117.04 88.6864 117.04ZM88.7984 122.192C88.1371 122.192 87.5238 122.016 86.9584 121.664C86.3931 121.312 85.9398 120.768 85.5984 120.032C85.2678 119.296 85.1024 118.357 85.1024 117.216C85.1024 115.893 85.2891 114.827 85.6624 114.016C86.0464 113.195 86.5424 112.592 87.1504 112.208C87.7584 111.824 88.4091 111.632 89.1024 111.632C89.7211 111.632 90.2544 111.744 90.7024 111.968C91.1504 112.192 91.5238 112.464 91.8224 112.784L90.8304 113.904C90.6491 113.68 90.4091 113.499 90.1104 113.36C89.8224 113.211 89.5238 113.136 89.2144 113.136C88.7878 113.136 88.3984 113.253 88.0464 113.488C87.6944 113.723 87.4064 114.117 87.1824 114.672C86.9691 115.216 86.8464 115.957 86.8144 116.896C87.1131 116.523 87.4651 116.229 87.8704 116.016C88.2758 115.803 88.6598 115.696 89.0224 115.696C89.9078 115.696 90.6224 115.957 91.1664 116.48C91.7211 116.992 91.9984 117.781 91.9984 118.848C91.9984 119.52 91.8491 120.107 91.5504 120.608C91.2624 121.109 90.8784 121.499 90.3984 121.776C89.9184 122.053 89.3851 122.192 88.7984 122.192Z" fill="#F9FAFB"/>
<path d="M115.177 122.192C114.516 122.192 113.924 122.075 113.401 121.84C112.878 121.595 112.468 121.264 112.169 120.848C111.87 120.432 111.721 119.947 111.721 119.392C111.721 118.763 111.908 118.235 112.281 117.808C112.654 117.381 113.081 117.04 113.561 116.784V116.72C113.166 116.443 112.83 116.112 112.553 115.728C112.286 115.333 112.153 114.869 112.153 114.336C112.153 113.781 112.286 113.307 112.553 112.912C112.82 112.507 113.182 112.192 113.641 111.968C114.11 111.744 114.638 111.632 115.225 111.632C116.142 111.632 116.868 111.888 117.401 112.4C117.945 112.901 118.217 113.563 118.217 114.384C118.217 114.885 118.073 115.339 117.785 115.744C117.497 116.149 117.188 116.475 116.857 116.72V116.784C117.326 117.051 117.737 117.387 118.089 117.792C118.441 118.197 118.617 118.741 118.617 119.424C118.617 119.947 118.473 120.416 118.185 120.832C117.897 121.248 117.497 121.579 116.985 121.824C116.473 122.069 115.87 122.192 115.177 122.192ZM115.849 116.256C116.126 115.979 116.334 115.696 116.473 115.408C116.622 115.12 116.697 114.816 116.697 114.496C116.697 114.048 116.564 113.68 116.297 113.392C116.03 113.093 115.662 112.944 115.193 112.944C114.798 112.944 114.468 113.067 114.201 113.312C113.934 113.557 113.801 113.899 113.801 114.336C113.801 114.677 113.892 114.965 114.073 115.2C114.254 115.424 114.5 115.621 114.809 115.792C115.129 115.952 115.476 116.107 115.849 116.256ZM115.209 120.88C115.7 120.88 116.1 120.747 116.409 120.48C116.729 120.203 116.889 119.829 116.889 119.36C116.889 118.987 116.777 118.683 116.553 118.448C116.34 118.213 116.046 118.011 115.673 117.84C115.31 117.659 114.9 117.477 114.441 117.296C114.121 117.531 113.854 117.808 113.641 118.128C113.438 118.448 113.337 118.805 113.337 119.2C113.337 119.701 113.518 120.107 113.881 120.416C114.244 120.725 114.686 120.88 115.209 120.88Z" fill="#F9FAFB"/>
<path d="M127.161 122.192C126.105 122.192 125.262 121.733 124.633 120.816C124.014 119.899 123.705 118.581 123.705 116.864C123.705 115.147 124.014 113.845 124.633 112.96C125.262 112.075 126.105 111.632 127.161 111.632C128.217 111.632 129.054 112.075 129.673 112.96C130.302 113.845 130.617 115.147 130.617 116.864C130.617 118.581 130.302 119.899 129.673 120.816C129.054 121.733 128.217 122.192 127.161 122.192ZM127.161 120.752C127.492 120.752 127.785 120.629 128.041 120.384C128.297 120.128 128.494 119.717 128.633 119.152C128.782 118.587 128.857 117.824 128.857 116.864C128.857 115.904 128.782 115.147 128.633 114.592C128.494 114.037 128.297 113.648 128.041 113.424C127.785 113.189 127.492 113.072 127.161 113.072C126.841 113.072 126.553 113.189 126.297 113.424C126.041 113.648 125.838 114.037 125.689 114.592C125.54 115.147 125.465 115.904 125.465 116.864C125.465 117.824 125.54 118.587 125.689 119.152C125.838 119.717 126.041 120.128 126.297 120.384C126.553 120.629 126.841 120.752 127.161 120.752Z" fill="#F9FAFB"/>
<path d="M138.905 122.192C138.084 122.192 137.39 122.053 136.825 121.776C136.27 121.488 135.812 121.147 135.449 120.752L136.329 119.568C136.638 119.877 136.99 120.144 137.385 120.368C137.78 120.581 138.233 120.688 138.745 120.688C139.3 120.688 139.748 120.555 140.089 120.288C140.441 120.011 140.617 119.632 140.617 119.152C140.617 118.8 140.526 118.496 140.345 118.24C140.174 117.973 139.87 117.771 139.433 117.632C139.006 117.493 138.404 117.424 137.625 117.424V116.08C138.628 116.08 139.321 115.925 139.705 115.616C140.089 115.307 140.281 114.917 140.281 114.448C140.281 114.021 140.148 113.691 139.881 113.456C139.614 113.211 139.246 113.088 138.777 113.088C138.382 113.088 138.02 113.179 137.689 113.36C137.358 113.531 137.038 113.76 136.729 114.048L135.785 112.912C136.222 112.528 136.686 112.219 137.177 111.984C137.678 111.749 138.233 111.632 138.841 111.632C139.822 111.632 140.617 111.867 141.225 112.336C141.833 112.795 142.137 113.456 142.137 114.32C142.137 114.885 141.977 115.365 141.657 115.76C141.348 116.144 140.916 116.443 140.361 116.656V116.72C140.958 116.88 141.46 117.173 141.865 117.6C142.27 118.027 142.473 118.576 142.473 119.248C142.473 119.867 142.308 120.395 141.977 120.832C141.657 121.269 141.225 121.605 140.681 121.84C140.148 122.075 139.556 122.192 138.905 122.192Z" fill="#F9FAFB"/>
<path d="M149.353 114.96C149.353 115.557 149.492 116.011 149.769 116.32C150.057 116.629 150.457 116.784 150.969 116.784C151.268 116.784 151.577 116.693 151.897 116.512C152.228 116.32 152.526 116.016 152.793 115.6C152.697 114.704 152.478 114.053 152.137 113.648C151.796 113.243 151.374 113.04 150.873 113.04C150.457 113.04 150.1 113.205 149.801 113.536C149.502 113.867 149.353 114.341 149.353 114.96ZM150.537 122.192C149.929 122.192 149.401 122.08 148.953 121.856C148.505 121.632 148.126 121.36 147.817 121.04L148.809 119.92C149.001 120.144 149.241 120.331 149.529 120.48C149.828 120.619 150.132 120.688 150.441 120.688C150.868 120.688 151.257 120.571 151.609 120.336C151.961 120.101 152.249 119.712 152.473 119.168C152.697 118.613 152.82 117.867 152.841 116.928C152.542 117.291 152.19 117.579 151.785 117.792C151.38 118.005 150.99 118.112 150.617 118.112C149.742 118.112 149.028 117.856 148.473 117.344C147.929 116.821 147.657 116.027 147.657 114.96C147.657 114.277 147.801 113.691 148.089 113.2C148.388 112.699 148.777 112.315 149.257 112.048C149.748 111.771 150.281 111.632 150.857 111.632C151.518 111.632 152.126 111.808 152.681 112.16C153.246 112.512 153.694 113.056 154.025 113.792C154.366 114.517 154.537 115.451 154.537 116.592C154.537 117.904 154.35 118.976 153.977 119.808C153.604 120.629 153.113 121.232 152.505 121.616C151.897 122 151.241 122.192 150.537 122.192Z" fill="#F9FAFB"/>
<path d="M177.828 122.192C176.772 122.192 175.929 121.733 175.3 120.816C174.681 119.899 174.372 118.581 174.372 116.864C174.372 115.147 174.681 113.845 175.3 112.96C175.929 112.075 176.772 111.632 177.828 111.632C178.884 111.632 179.721 112.075 180.34 112.96C180.969 113.845 181.284 115.147 181.284 116.864C181.284 118.581 180.969 119.899 180.34 120.816C179.721 121.733 178.884 122.192 177.828 122.192ZM177.828 120.752C178.158 120.752 178.452 120.629 178.708 120.384C178.964 120.128 179.161 119.717 179.3 119.152C179.449 118.587 179.524 117.824 179.524 116.864C179.524 115.904 179.449 115.147 179.3 114.592C179.161 114.037 178.964 113.648 178.708 113.424C178.452 113.189 178.158 113.072 177.828 113.072C177.508 113.072 177.22 113.189 176.964 113.424C176.708 113.648 176.505 114.037 176.356 114.592C176.206 115.147 176.132 115.904 176.132 116.864C176.132 117.824 176.206 118.587 176.356 119.152C176.505 119.717 176.708 120.128 176.964 120.384C177.22 120.629 177.508 120.752 177.828 120.752Z" fill="#F9FAFB"/>
<path d="M186.34 122V120.928C187.289 120.011 188.105 119.195 188.788 118.48C189.481 117.755 190.014 117.099 190.388 116.512C190.761 115.915 190.948 115.36 190.948 114.848C190.948 114.315 190.804 113.888 190.516 113.568C190.228 113.248 189.812 113.088 189.268 113.088C188.873 113.088 188.51 113.2 188.18 113.424C187.86 113.648 187.561 113.915 187.284 114.224L186.26 113.2C186.729 112.699 187.214 112.315 187.716 112.048C188.217 111.771 188.814 111.632 189.508 111.632C190.489 111.632 191.268 111.915 191.844 112.48C192.43 113.045 192.724 113.803 192.724 114.752C192.724 115.349 192.553 115.963 192.212 116.592C191.881 117.211 191.433 117.845 190.868 118.496C190.313 119.147 189.7 119.829 189.028 120.544C189.294 120.523 189.582 120.501 189.892 120.48C190.201 120.448 190.478 120.432 190.724 120.432H193.22V122H186.34Z" fill="#F9FAFB"/>
<circle opacity="0.5" cx="201.833" cy="116" r="2" fill="#F9FAFB"/>
<circle opacity="0.5" cx="213.833" cy="116" r="2" fill="#F9FAFB"/>
<circle opacity="0.5" cx="240.5" cy="116" r="2" fill="#F9FAFB"/>
<circle opacity="0.5" cx="252.5" cy="116" r="2" fill="#F9FAFB"/>
<circle opacity="0.5" cx="264.5" cy="116" r="2" fill="#F9FAFB"/>
<circle opacity="0.5" cx="276.5" cy="116" r="2" fill="#F9FAFB"/>
<path opacity="0.5" d="M52.308 161.168C51.664 161.168 51.0667 161.047 50.516 160.804C49.9653 160.552 49.4893 160.221 49.088 159.81L49.788 158.998C50.1147 159.343 50.4973 159.623 50.936 159.838C51.384 160.043 51.846 160.146 52.322 160.146C52.9287 160.146 53.4 160.011 53.736 159.74C54.072 159.46 54.24 159.096 54.24 158.648C54.24 158.331 54.17 158.079 54.03 157.892C53.8993 157.705 53.7173 157.547 53.484 157.416C53.26 157.285 53.0033 157.155 52.714 157.024L51.398 156.45C51.1087 156.329 50.8193 156.17 50.53 155.974C50.25 155.778 50.012 155.526 49.816 155.218C49.6293 154.91 49.536 154.532 49.536 154.084C49.536 153.617 49.6573 153.202 49.9 152.838C50.152 152.465 50.4973 152.175 50.936 151.97C51.3747 151.755 51.8693 151.648 52.42 151.648C52.9707 151.648 53.4793 151.755 53.946 151.97C54.4127 152.175 54.8093 152.446 55.136 152.782L54.506 153.538C54.226 153.267 53.9133 153.057 53.568 152.908C53.232 152.749 52.8493 152.67 52.42 152.67C51.9067 152.67 51.4913 152.791 51.174 153.034C50.866 153.277 50.712 153.603 50.712 154.014C50.712 154.303 50.7867 154.546 50.936 154.742C51.0947 154.929 51.2907 155.083 51.524 155.204C51.7573 155.325 51.9953 155.437 52.238 155.54L53.54 156.1C53.8947 156.249 54.212 156.431 54.492 156.646C54.7813 156.851 55.01 157.108 55.178 157.416C55.346 157.715 55.43 158.093 55.43 158.55C55.43 159.035 55.304 159.479 55.052 159.88C54.8 160.272 54.4407 160.585 53.974 160.818C53.5073 161.051 52.952 161.168 52.308 161.168ZM59.8845 161.168C59.2778 161.168 58.7272 161.028 58.2325 160.748C57.7378 160.459 57.3458 160.048 57.0565 159.516C56.7672 158.984 56.6225 158.349 56.6225 157.612C56.6225 156.865 56.7672 156.226 57.0565 155.694C57.3552 155.162 57.7378 154.751 58.2045 154.462C58.6712 154.173 59.1612 154.028 59.6745 154.028C60.5425 154.028 61.2098 154.317 61.6765 154.896C62.1525 155.475 62.3905 156.249 62.3905 157.22C62.3905 157.341 62.3858 157.463 62.3765 157.584C62.3765 157.696 62.3672 157.794 62.3485 157.878H57.7565C57.8032 158.597 58.0272 159.171 58.4285 159.6C58.8392 160.029 59.3712 160.244 60.0245 160.244C60.3512 160.244 60.6498 160.197 60.9205 160.104C61.2005 160.001 61.4665 159.871 61.7185 159.712L62.1245 160.468C61.8352 160.655 61.5038 160.818 61.1305 160.958C60.7665 161.098 60.3512 161.168 59.8845 161.168ZM57.7425 157.052H61.3825C61.3825 156.361 61.2332 155.839 60.9345 155.484C60.6452 155.12 60.2345 154.938 59.7025 154.938C59.2265 154.938 58.7972 155.125 58.4145 155.498C58.0412 155.862 57.8172 156.38 57.7425 157.052ZM66.0598 161.168C65.3412 161.168 64.8138 160.944 64.4778 160.496C64.1418 160.039 63.9738 159.376 63.9738 158.508V154.196H65.1358V158.354C65.1358 158.989 65.2338 159.451 65.4298 159.74C65.6352 160.029 65.9618 160.174 66.4098 160.174C66.7645 160.174 67.0772 160.085 67.3478 159.908C67.6278 159.721 67.9265 159.427 68.2438 159.026V154.196H69.3918V161H68.4398L68.3418 159.936H68.2998C67.9825 160.309 67.6465 160.608 67.2918 160.832C66.9372 161.056 66.5265 161.168 66.0598 161.168ZM74.4898 161V154.196H75.4418L75.5398 155.176H75.5818C75.9085 154.849 76.2538 154.579 76.6178 154.364C76.9818 154.14 77.3971 154.028 77.8638 154.028C78.5825 154.028 79.1051 154.257 79.4318 154.714C79.7678 155.162 79.9358 155.82 79.9358 156.688V161H78.7878V156.842C78.7878 156.207 78.6851 155.745 78.4798 155.456C78.2745 155.167 77.9478 155.022 77.4998 155.022C77.1545 155.022 76.8418 155.111 76.5618 155.288C76.2911 155.465 75.9831 155.727 75.6378 156.072V161H74.4898ZM84.792 161.168C84.2414 161.168 83.7234 161.028 83.238 160.748C82.762 160.468 82.3747 160.062 82.076 159.53C81.7867 158.998 81.642 158.359 81.642 157.612C81.642 156.847 81.7867 156.198 82.076 155.666C82.3747 155.134 82.762 154.728 83.238 154.448C83.7234 154.168 84.2414 154.028 84.792 154.028C85.352 154.028 85.87 154.168 86.346 154.448C86.822 154.728 87.2047 155.134 87.494 155.666C87.7927 156.198 87.942 156.847 87.942 157.612C87.942 158.359 87.7927 158.998 87.494 159.53C87.2047 160.062 86.822 160.468 86.346 160.748C85.87 161.028 85.352 161.168 84.792 161.168ZM84.792 160.216C85.38 160.216 85.8514 159.978 86.206 159.502C86.57 159.017 86.752 158.387 86.752 157.612C86.752 156.828 86.57 156.193 86.206 155.708C85.8514 155.223 85.38 154.98 84.792 154.98C84.2134 154.98 83.742 155.223 83.378 155.708C83.014 156.193 82.832 156.828 82.832 157.612C82.832 158.387 83.014 159.017 83.378 159.502C83.742 159.978 84.2134 160.216 84.792 160.216ZM89.7339 161V154.196H90.6859L90.7839 155.176H90.8259C91.1246 154.849 91.4513 154.579 91.8059 154.364C92.1606 154.14 92.5386 154.028 92.9399 154.028C93.4626 154.028 93.8686 154.145 94.1579 154.378C94.4566 154.602 94.6759 154.919 94.8159 155.33C95.1706 154.947 95.5299 154.635 95.8939 154.392C96.2579 154.149 96.6453 154.028 97.0559 154.028C97.7559 154.028 98.2739 154.257 98.6099 154.714C98.9553 155.162 99.1279 155.82 99.1279 156.688V161H97.9799V156.842C97.9799 156.207 97.8773 155.745 97.6719 155.456C97.4666 155.167 97.1493 155.022 96.7199 155.022C96.2159 155.022 95.6466 155.372 95.0119 156.072V161H93.8639V156.842C93.8639 156.207 93.7613 155.745 93.5559 155.456C93.3506 155.167 93.0286 155.022 92.5899 155.022C92.0859 155.022 91.5166 155.372 90.8819 156.072V161H89.7339ZM104.099 161.168C103.493 161.168 102.942 161.028 102.447 160.748C101.953 160.459 101.561 160.048 101.271 159.516C100.982 158.984 100.837 158.349 100.837 157.612C100.837 156.865 100.982 156.226 101.271 155.694C101.57 155.162 101.953 154.751 102.419 154.462C102.886 154.173 103.376 154.028 103.889 154.028C104.757 154.028 105.425 154.317 105.891 154.896C106.367 155.475 106.605 156.249 106.605 157.22C106.605 157.341 106.601 157.463 106.591 157.584C106.591 157.696 106.582 157.794 106.563 157.878H101.971C102.018 158.597 102.242 159.171 102.643 159.6C103.054 160.029 103.586 160.244 104.239 160.244C104.566 160.244 104.865 160.197 105.135 160.104C105.415 160.001 105.681 159.871 105.933 159.712L106.339 160.468C106.05 160.655 105.719 160.818 105.345 160.958C104.981 161.098 104.566 161.168 104.099 161.168ZM101.957 157.052H105.597C105.597 156.361 105.448 155.839 105.149 155.484C104.86 155.12 104.449 154.938 103.917 154.938C103.441 154.938 103.012 155.125 102.629 155.498C102.256 155.862 102.032 156.38 101.957 157.052ZM112.657 161.168C112.088 161.168 111.612 161 111.229 160.664C110.856 160.319 110.669 159.843 110.669 159.236C110.669 158.489 111.001 157.92 111.663 157.528C112.335 157.127 113.395 156.847 114.841 156.688C114.841 156.399 114.799 156.123 114.715 155.862C114.641 155.601 114.501 155.391 114.295 155.232C114.099 155.064 113.815 154.98 113.441 154.98C113.049 154.98 112.681 155.055 112.335 155.204C111.99 155.353 111.682 155.521 111.411 155.708L110.963 154.91C111.281 154.705 111.668 154.509 112.125 154.322C112.592 154.126 113.096 154.028 113.637 154.028C114.468 154.028 115.07 154.285 115.443 154.798C115.817 155.302 116.003 155.979 116.003 156.828V161H115.051L114.953 160.188H114.911C114.594 160.449 114.244 160.678 113.861 160.874C113.488 161.07 113.087 161.168 112.657 161.168ZM112.993 160.244C113.32 160.244 113.628 160.165 113.917 160.006C114.207 159.847 114.515 159.623 114.841 159.334V157.444C113.712 157.584 112.919 157.794 112.461 158.074C112.013 158.354 111.789 158.713 111.789 159.152C111.789 159.535 111.906 159.815 112.139 159.992C112.373 160.16 112.657 160.244 112.993 160.244ZM122.456 163.87V161.448L122.512 160.216C122.241 160.477 121.929 160.701 121.574 160.888C121.229 161.075 120.86 161.168 120.468 161.168C119.619 161.168 118.937 160.86 118.424 160.244C117.911 159.619 117.654 158.741 117.654 157.612C117.654 156.875 117.789 156.24 118.06 155.708C118.34 155.167 118.704 154.751 119.152 154.462C119.609 154.173 120.095 154.028 120.608 154.028C121 154.028 121.345 154.098 121.644 154.238C121.943 154.369 122.246 154.569 122.554 154.84H122.582L122.694 154.196H123.618V163.87H122.456ZM120.72 160.202C121.317 160.202 121.896 159.889 122.456 159.264V155.708C122.167 155.447 121.887 155.265 121.616 155.162C121.355 155.05 121.084 154.994 120.804 154.994C120.44 154.994 120.109 155.106 119.81 155.33C119.521 155.545 119.287 155.848 119.11 156.24C118.933 156.623 118.844 157.075 118.844 157.598C118.844 158.41 119.007 159.049 119.334 159.516C119.661 159.973 120.123 160.202 120.72 160.202ZM127.898 161.168C127.179 161.168 126.652 160.944 126.316 160.496C125.98 160.039 125.812 159.376 125.812 158.508V154.196H126.974V158.354C126.974 158.989 127.072 159.451 127.268 159.74C127.473 160.029 127.8 160.174 128.248 160.174C128.602 160.174 128.915 160.085 129.186 159.908C129.466 159.721 129.764 159.427 130.082 159.026V154.196H131.23V161H130.278L130.18 159.936H130.138C129.82 160.309 129.484 160.608 129.13 160.832C128.775 161.056 128.364 161.168 127.898 161.168ZM133.525 161V154.196H134.673V161H133.525ZM134.113 152.796C133.889 152.796 133.702 152.731 133.553 152.6C133.413 152.46 133.343 152.273 133.343 152.04C133.343 151.816 133.413 151.634 133.553 151.494C133.702 151.354 133.889 151.284 134.113 151.284C134.337 151.284 134.519 151.354 134.659 151.494C134.808 151.634 134.883 151.816 134.883 152.04C134.883 152.273 134.808 152.46 134.659 152.6C134.519 152.731 134.337 152.796 134.113 152.796Z" fill="#F9FAFB"/>
<circle opacity="0.5" cx="227.5" cy="156" r="2" fill="#F9FAFB"/>
<circle opacity="0.5" cx="239.5" cy="156" r="2" fill="#F9FAFB"/>
<path opacity="0.5" d="M249.682 163.24L252.496 151.06H253.84L251.026 163.24H249.682Z" fill="#F9FAFB"/>
<circle opacity="0.5" cx="264.5" cy="156" r="2" fill="#F9FAFB"/>
<circle opacity="0.5" cx="276.5" cy="156" r="2" fill="#F9FAFB"/>
<g opacity="0.8" clip-path="url(#clip1_107_148)">
<path d="M78.1293 57.024L77.8293 55.524H74.4773L73.944 57.0133L71.2573 57.0187C72.5364 53.9429 73.8181 50.8682 75.1027 47.7947C75.3213 47.2733 75.7093 47.008 76.2813 47.0107C76.7187 47.0147 77.432 47.0147 78.4227 47.012L80.5 57.02L78.1293 57.024ZM75.232 53.4693H77.392L76.5853 49.7093L75.232 53.4693ZM57.9133 47.0093L60.6147 47.012L56.4387 57.0253L53.704 57.0227C53.0163 54.3778 52.3372 51.7306 51.6667 49.0813C51.5333 48.5533 51.2693 48.184 50.7613 48.0093C50.011 47.7579 49.2571 47.517 48.5 47.2867L48.5 47.0133H52.816C53.5627 47.0133 53.9987 47.3747 54.1387 48.116C54.28 48.8587 54.6347 50.7493 55.2053 53.788L57.9133 47.0093ZM64.3267 47.012L62.1907 57.0227L59.62 57.02L61.7533 47.0093L64.3267 47.012ZM69.54 46.8267C70.3093 46.8267 71.2787 47.0667 71.836 47.2867L71.3853 49.3627C70.8813 49.16 70.052 48.8867 69.3547 48.896C68.3413 48.9133 67.7147 49.3387 67.7147 49.7467C67.7147 50.4107 68.8027 50.7453 69.9227 51.4707C71.2013 52.2973 71.3693 53.04 71.3533 53.8467C71.336 55.5213 69.9227 57.1733 66.9413 57.1733C65.5813 57.1533 65.0907 57.0387 63.9813 56.6453L64.4507 54.4787C65.58 54.952 66.0587 55.1027 67.024 55.1027C67.908 55.1027 68.6667 54.7453 68.6733 54.1227C68.6787 53.68 68.4067 53.46 67.4147 52.9133C66.4227 52.3653 65.0307 51.6067 65.0493 50.084C65.072 48.1347 66.9187 46.8267 69.5413 46.8267H69.54Z" fill="#F9FAFB"/>
</g>
<g opacity="0.8">
<path d="M268.5 42.25C266.572 42.25 264.687 42.8218 263.083 43.8932C261.48 44.9645 260.23 46.4873 259.492 48.2688C258.754 50.0504 258.561 52.0108 258.937 53.9021C259.314 55.7934 260.242 57.5307 261.606 58.8943C262.969 60.2579 264.707 61.1865 266.598 61.5627C268.489 61.9389 270.45 61.7458 272.231 61.0078C274.013 60.2699 275.535 59.0202 276.607 57.4168C277.678 55.8134 278.25 53.9284 278.25 52C278.247 49.415 277.219 46.9366 275.391 45.1087C273.563 43.2808 271.085 42.2527 268.5 42.25ZM268.5 60.25C266.868 60.25 265.273 59.7661 263.917 58.8596C262.56 57.9531 261.502 56.6646 260.878 55.1571C260.254 53.6496 260.09 51.9908 260.409 50.3905C260.727 48.7902 261.513 47.3202 262.666 46.1664C263.82 45.0126 265.29 44.2268 266.891 43.9085C268.491 43.5902 270.15 43.7536 271.657 44.378C273.165 45.0024 274.453 46.0598 275.36 47.4165C276.266 48.7733 276.75 50.3683 276.75 52C276.748 54.1873 275.878 56.2843 274.331 57.8309C272.784 59.3775 270.687 60.2475 268.5 60.25ZM265.6 49.3994C266.024 50.2007 266.246 51.0935 266.246 52C266.246 52.9065 266.024 53.7993 265.6 54.6006C265.555 54.6898 265.493 54.7691 265.417 54.8339C265.342 54.8988 265.254 54.9478 265.158 54.9782C265.063 55.0085 264.963 55.0196 264.864 55.0108C264.764 55.002 264.668 54.9734 264.58 54.9267C264.491 54.88 264.413 54.8162 264.35 54.739C264.287 54.6618 264.24 54.5728 264.211 54.4771C264.183 54.3814 264.174 54.281 264.185 54.1818C264.196 54.0826 264.226 53.9866 264.275 53.8994C264.589 53.3155 264.753 52.6629 264.753 52C264.753 51.3371 264.589 50.6845 264.275 50.1006C264.187 49.9253 264.171 49.7224 264.23 49.5355C264.29 49.3486 264.421 49.1925 264.594 49.1008C264.768 49.009 264.97 48.9889 265.158 49.0447C265.346 49.1005 265.505 49.2279 265.6 49.3994ZM270.85 46.3994C271.773 48.1231 272.255 50.0478 272.255 52.0028C272.255 53.9578 271.773 55.8826 270.85 57.6063C270.75 57.7702 270.592 57.8896 270.406 57.9399C270.221 57.9902 270.023 57.9676 269.854 57.8766C269.685 57.7856 269.558 57.6333 269.497 57.451C269.437 57.2687 269.449 57.0702 269.531 56.8966C270.338 55.3905 270.76 53.7085 270.76 52C270.76 50.2915 270.338 48.6095 269.531 47.1034C269.438 46.9279 269.417 46.7223 269.475 46.5319C269.533 46.3415 269.664 46.1819 269.84 46.0881C270.015 45.9944 270.221 45.9742 270.411 46.0321C270.602 46.0899 270.761 46.221 270.855 46.3966L270.85 46.3994ZM268.225 47.8994C268.899 49.162 269.251 50.5709 269.251 52.0019C269.251 53.4328 268.899 54.8417 268.225 56.1044C268.18 56.1931 268.118 56.2718 268.041 56.3361C267.965 56.4004 267.877 56.4488 267.782 56.4787C267.687 56.5086 267.587 56.5192 267.488 56.51C267.389 56.5008 267.293 56.472 267.205 56.4252C267.117 56.3784 267.039 56.3145 266.976 56.2374C266.913 56.1603 266.866 56.0713 266.838 55.9759C266.81 55.8804 266.801 55.7802 266.812 55.6812C266.823 55.5823 266.853 55.4864 266.902 55.3994C267.459 54.3538 267.751 53.1869 267.751 52.0019C267.751 50.8168 267.459 49.65 266.902 48.6044C266.853 48.5173 266.823 48.4215 266.812 48.3225C266.801 48.2235 266.81 48.1234 266.838 48.0279C266.866 47.9324 266.913 47.8435 266.976 47.7663C267.039 47.6892 267.117 47.6254 267.205 47.5786C267.293 47.5318 267.389 47.5029 267.488 47.4937C267.587 47.4845 267.687 47.4952 267.782 47.5251C267.877 47.5549 267.965 47.6034 268.041 47.6677C268.118 47.7319 268.18 47.8107 268.225 47.8994Z" fill="#F9FAFB"/>
</g>
</g>
<rect x="25" y="20.5" width="279" height="167" rx="15.5" stroke="#374151"/>
</g>
<defs>
<filter id="filter0_d_107_148" x="0.5" y="0" width="328" height="216" filterUnits="userSpaceOnUse" color-interpolation-filters="sRGB">
<feFlood flood-opacity="0" result="BackgroundImageFix"/>
<feColorMatrix in="SourceAlpha" type="matrix" values="0 0 0 0 0 0 0 0 0 0 0 0 0 0 0 0 0 0 127 0" result="hardAlpha"/>
<feOffset dy="4"/>
<feGaussianBlur stdDeviation="12"/>
<feComposite in2="hardAlpha" operator="out"/>
<feColorMatrix type="matrix" values="0 0 0 0 0 0 0 0 0 0 0 0 0 0 0 0 0 0 0.25 0"/>
<feBlend mode="normal" in2="BackgroundImageFix" result="effect1_dropShadow_107_148"/>
<feBlend mode="normal" in="SourceGraphic" in2="effect1_dropShadow_107_148" result="shape"/>
</filter>
<filter id="filter1_b_107_148" x="-23.5" y="-28" width="376" height="264" filterUnits="userSpaceOnUse" color-interpolation-filters="sRGB">
<feFlood flood-opacity="0" result="BackgroundImageFix"/>
<feGaussianBlur in="BackgroundImageFix" stdDeviation="24"/>
<feComposite in2="SourceAlpha" operator="in" result="effect1_backgroundBlur_107_148"/>
<feBlend mode="normal" in="SourceGraphic" in2="effect1_backgroundBlur_107_148" result="shape"/>
</filter>
<clipPath id="clip0_107_148">
<rect x="24.5" y="20" width="280" height="168" rx="16" fill="white"/>
</clipPath>
<clipPath id="clip1_107_148">
<rect width="32" height="32" fill="white" transform="translate(48.5 36)"/>
</clipPath>
</defs>
</svg>
